<svg width="219" height="30" viewBox="0 0 219 30" fill="none" xmlns="http://www.w3.org/2000/svg">
<path d="M10 11.6663H15V16.6663H10V28.3325H5V16.6663H0V11.6663H5V9.57501C5 7.59376 5.62375 5.09001 6.86375 3.72126C8.10375 2.35001 9.6525 1.66626 11.5075 1.66626H15.0012V6.66626H11.5013C10.6713 6.66626 10.0012 7.33626 10.0012 8.16501V11.6663H10Z" fill="#134731"/>
<path d="M75.3425 2.7017C79.3527 2.7017 79.8276 2.71928 81.4047 2.78961C82.8704 2.85407 83.6619 3.10022 84.1895 3.30533C84.8872 3.57492 85.3914 3.90311 85.9132 4.42469C86.4408 4.95214 86.7633 5.45028 87.0388 6.14769C87.244 6.67513 87.4903 7.47216 87.5548 8.93143C87.6251 10.5138 87.6427 10.9885 87.6427 14.9912C87.6427 18.9939 87.6251 19.4745 87.5548 21.051C87.4903 22.5161 87.244 23.3073 87.0388 23.8347C86.7692 24.5321 86.4408 25.0361 85.919 25.5577C85.3914 26.0852 84.8931 26.4075 84.1954 26.6829C83.6677 26.8881 82.8704 27.1342 81.4105 27.1987C79.8276 27.269 79.3527 27.2866 75.3484 27.2866C71.3441 27.2866 70.8633 27.269 69.2863 27.1987C67.8205 27.1342 67.0291 26.8881 66.5014 26.6829C65.8037 26.4134 65.2995 26.0852 64.7778 25.5636C64.2501 25.0361 63.9276 24.538 63.6521 23.8406C63.4469 23.3131 63.2007 22.5161 63.1362 21.0568C63.0658 19.4745 63.0482 18.9998 63.0482 14.9971C63.0482 10.9943 63.0658 10.5138 63.1362 8.93729C63.2007 7.47216 63.4469 6.68099 63.6521 6.15355C63.9218 5.45614 64.2501 4.95214 64.7719 4.43055C65.2995 3.90311 65.7979 3.58078 66.4956 3.30533C67.0232 3.10022 67.8205 2.85407 69.2804 2.78961C70.8575 2.71928 71.3324 2.7017 75.3425 2.7017V2.7017ZM75.3425 0C71.2679 0 70.7578 0.0175816 69.1573 0.0879078C67.5626 0.158234 66.4662 0.416097 65.5165 0.78531C64.5256 1.1721 63.6873 1.68197 62.8547 2.52002C62.0164 3.35222 61.5063 4.19027 61.1194 5.17484C60.75 6.1301 60.492 7.22016 60.4217 8.81422C60.3513 10.42 60.3337 10.9299 60.3337 15.0029C60.3337 19.076 60.3513 19.5859 60.4217 21.1858C60.492 22.7798 60.75 23.8758 61.1194 24.8252C61.5063 25.8156 62.0164 26.6536 62.8547 27.4858C63.6873 28.318 64.5256 28.8338 65.5106 29.2147C66.4662 29.5839 67.5567 29.8418 69.1514 29.9121C70.752 29.9824 71.262 30 75.3367 30C79.4113 30 79.9214 29.9824 81.5219 29.9121C83.1166 29.8418 84.213 29.5839 85.1627 29.2147C86.1477 28.8338 86.9861 28.318 87.8186 27.4858C88.6511 26.6536 89.167 25.8156 89.5481 24.831C89.9175 23.8758 90.1754 22.7857 90.2458 21.1916C90.3162 19.5917 90.3337 19.0819 90.3337 15.0088C90.3337 10.9357 90.3162 10.4259 90.2458 8.82594C90.1754 7.23188 89.9175 6.13596 89.5481 5.18656C89.1788 4.19027 88.6687 3.35222 87.8303 2.52002C86.9978 1.68783 86.1594 1.1721 85.1745 0.79117C84.2188 0.421957 83.1283 0.164095 81.5337 0.0937683C79.9273 0.0175816 79.4172 0 75.3425 0V0Z" fill="#134731"/>
<path d="M75.3425 7.29639C71.0861 7.29639 67.6329 10.7482 67.6329 15.003C67.6329 19.2577 71.0861 22.7096 75.3425 22.7096C79.5989 22.7096 83.0521 19.2577 83.0521 15.003C83.0521 10.7482 79.5989 7.29639 75.3425 7.29639ZM75.3425 20.002C72.5811 20.002 70.3416 17.7633 70.3416 15.003C70.3416 12.2427 72.5811 10.0039 75.3425 10.0039C78.1039 10.0039 80.3435 12.2427 80.3435 15.003C80.3435 17.7633 78.1039 20.002 75.3425 20.002Z" fill="#134731"/>
<path d="M85.1569 6.99156C85.1569 7.98527 84.3511 8.79074 83.357 8.79074C82.3629 8.79074 81.5571 7.98527 81.5571 6.99156C81.5571 5.99785 82.3629 5.19238 83.357 5.19238C84.3511 5.19238 85.1569 5.99785 85.1569 6.99156Z" fill="#134731"/>
<path d="M142.144 2.95117C135.094 2.95117 131.539 8.00617 131.539 12.2212C131.539 14.7762 132.507 17.0449 134.577 17.8899C134.919 18.0299 135.222 17.8962 135.321 17.5212C135.39 17.2599 135.551 16.5999 135.625 16.3262C135.726 15.9574 135.686 15.8262 135.414 15.5012C134.815 14.7974 134.434 13.8812 134.434 12.5899C134.434 8.83992 137.239 5.48367 141.74 5.48367C145.726 5.48367 147.916 7.92242 147.916 11.1699C147.916 15.4499 146.021 19.0599 143.21 19.0599C141.656 19.0599 140.495 17.7762 140.869 16.2012C141.315 14.3174 142.179 12.2899 142.179 10.9349C142.179 9.71992 141.525 8.70867 140.179 8.70867C138.592 8.70867 137.315 10.3487 137.315 12.5487C137.315 13.9499 137.791 14.8974 137.791 14.8974C137.791 14.8974 136.165 21.7787 135.881 22.9837C135.315 25.3837 135.796 28.3274 135.84 28.6249C135.861 28.7987 136.089 28.8437 136.19 28.7099C136.336 28.5187 138.229 26.1812 138.869 23.8512C139.054 23.1912 139.914 19.7762 139.914 19.7762C140.432 20.7574 141.935 21.6224 143.539 21.6224C148.31 21.6224 151.545 17.2762 151.545 11.4512C151.54 7.05117 147.811 2.95117 142.145 2.95117H142.144Z" fill="#134731"/>
<path d="M216.764 3.75572L194.172 12.9356C193.263 13.3631 192.955 14.2193 193.952 14.6839L199.748 16.6246L213.761 7.49886C214.526 6.92594 215.31 7.07873 214.636 7.70893L202.6 19.1918L202.222 24.0513C202.572 24.8016 203.213 24.8051 203.622 24.4322L206.952 21.1122L212.655 25.612C213.98 26.4383 214.7 25.905 214.985 24.3906L218.726 5.72707C219.114 3.86286 218.452 3.04149 216.764 3.75572Z" fill="#134731"/>
</svg>
